<svg width="38" height="29" viewBox="0 0 38 29" fill="none" xmlns="http://www.w3.org/2000/svg">
<path d="M9.12 0.539999C11.04 0.539999 12.63 1.02 13.89 1.98C15.15 2.88 16.11 4.11 16.77 5.67C17.43 7.17 17.76 8.85 17.76 10.71C17.76 13.17 17.25 15.54 16.23 17.82C15.27 20.1 13.92 22.14 12.18 23.94C10.44 25.74 8.46 27.15 6.24 28.17L0.93 23.94C2.55 23.28 4.02 22.47 5.34 21.51C6.72 20.55 7.89 19.47 8.85 18.27C9.81 17.07 10.5 15.84 10.92 14.58L10.47 14.31C10.17 14.49 9.81 14.67 9.39 14.85C8.97 14.97 8.37 15.03 7.59 15.03C6.63 15.03 5.67 14.79 4.71 14.31C3.75 13.77 2.94 13.02 2.28 12.06C1.62 11.04 1.29 9.78 1.29 8.28C1.29 6.66 1.65 5.28 2.37 4.14C3.09 3 4.05 2.13 5.25 1.53C6.45 0.869999 7.74 0.539999 9.12 0.539999ZM29.37 0.539999C31.29 0.539999 32.88 1.02 34.14 1.98C35.4 2.88 36.36 4.11 37.02 5.67C37.68 7.17 38.01 8.85 38.01 10.71C38.01 13.17 37.5 15.54 36.48 17.82C35.52 20.1 34.17 22.14 32.43 23.94C30.69 25.74 28.71 27.15 26.49 28.17L21.18 23.94C22.8 23.28 24.27 22.47 25.59 21.51C26.97 20.55 28.14 19.47 29.1 18.27C30.06 17.07 30.75 15.84 31.17 14.58L30.72 14.31C30.42 14.49 30.06 14.67 29.64 14.85C29.22 14.97 28.62 15.03 27.84 15.03C26.88 15.03 25.92 14.79 24.96 14.31C24 13.77 23.19 13.02 22.53 12.06C21.87 11.04 21.54 9.78 21.54 8.28C21.54 6.66 21.9 5.28 22.62 4.14C23.34 3 24.3 2.13 25.5 1.53C26.7 0.869999 27.99 0.539999 29.37 0.539999Z" fill="#FCD54C"/>
</svg>
