<svg width="14" height="14" viewBox="0 0 14 14" fill="none" xmlns="http://www.w3.org/2000/svg">
<path d="M13.5 4.62342C13.5 3.91068 13.3416 3.51472 13.1832 3.03957C13.0248 2.6436 12.7873 2.24764 12.4705 1.93087C12.1537 1.53491 11.7578 1.37652 11.3618 1.21814C10.9658 1.05975 10.4907 0.98056 9.77795 0.901367C9.06522 0.901367 8.82764 0.901367 7.0854 0.901367C5.42236 0.901367 5.18478 0.901367 4.47205 0.901367C3.75932 0.901367 3.36335 1.05975 2.8882 1.21814C2.49224 1.37652 2.09627 1.6141 1.7795 1.93087C1.46273 2.32683 1.22516 2.6436 1.06677 3.11876C0.908385 3.51472 0.829193 3.98988 0.75 4.62342C0.75 5.33615 0.75 5.57373 0.75 7.23677C0.75 8.97901 0.75 9.21658 0.75 9.85012C0.75 10.5629 0.908385 10.9588 1.06677 11.434C1.22516 11.8299 1.46273 12.2259 1.7795 12.5427C2.17547 12.9386 2.49224 13.097 2.8882 13.2554C3.28416 13.4138 3.75932 13.493 4.47205 13.5722C5.18478 13.5722 5.34317 13.5722 7.0854 13.5722C8.82764 13.5722 9.06522 13.5722 9.69876 13.5722C10.4115 13.5722 10.8075 13.4138 11.2826 13.2554C11.6786 13.097 12.0745 12.8594 12.3913 12.5427C12.7873 12.1467 12.9457 11.8299 13.104 11.434C13.2624 11.038 13.3416 10.5629 13.4208 9.85012C13.5 9.13739 13.4208 8.97901 13.4208 7.23677C13.4208 5.49453 13.5 5.33615 13.5 4.62342ZM7.0854 10.5629C5.26398 10.5629 3.83851 9.0582 3.83851 7.31596C3.83851 5.49453 5.34317 4.06907 7.0854 4.06907C8.90683 4.06907 10.3323 5.57373 10.3323 7.31596C10.4115 9.0582 8.90683 10.5629 7.0854 10.5629ZM10.4907 4.62342C10.0947 4.62342 9.69876 4.30665 9.69876 3.83149C9.69876 3.43553 10.0155 3.03957 10.4907 3.03957C10.8866 3.03957 11.2826 3.35634 11.2826 3.83149C11.2826 4.30665 10.9658 4.62342 10.4907 4.62342Z" fill="#E8E8E8"/>
<path d="M9.22366 7.23772C9.22366 8.42561 8.27335 9.37592 7.08546 9.37592C5.89758 9.37592 4.94727 8.42561 4.94727 7.23772C4.94727 6.04983 5.97677 5.17871 7.08546 5.17871C8.27335 5.17871 9.22366 6.12902 9.22366 7.23772Z" fill="#E8E8E8"/>
</svg>
