<svg width="139" height="49" viewBox="0 0 139 49" fill="none" xmlns="http://www.w3.org/2000/svg">
<path opacity="0.6" d="M15.2035 32.805C15.759 32.805 16.2045 32.948 16.54 33.234C16.8755 33.52 17.0433 33.9077 17.0433 34.3972C17.0433 34.8867 16.8728 35.269 16.5318 35.544C16.1963 35.8135 15.7508 35.9482 15.1953 35.9482L15.1375 35.9895H13.801V38.25H13.141V32.805H15.2035ZM15.1953 35.3707C15.5858 35.3707 15.8745 35.291 16.0615 35.1315C16.254 34.9665 16.3503 34.7217 16.3503 34.3972C16.3503 34.0727 16.254 33.8307 16.0615 33.6712C15.8745 33.5062 15.5858 33.4237 15.1953 33.4237H13.801V35.3707H15.1953ZM15.5748 35.5027L17.3733 38.25H16.5895L15.022 35.8657L15.5748 35.5027ZM20.0911 38.3325C19.7006 38.3325 19.3514 38.2472 19.0434 38.0767C18.7409 37.9062 18.5044 37.6615 18.3339 37.3425C18.1634 37.018 18.0781 36.633 18.0781 36.1875C18.0781 35.742 18.1634 35.3597 18.3339 35.0407C18.5044 34.7162 18.7381 34.4687 19.0351 34.2982C19.3321 34.1277 19.6704 34.0425 20.0499 34.0425C20.4349 34.0425 20.7621 34.125 21.0316 34.29C21.3066 34.455 21.5156 34.6805 21.6586 34.9665C21.8016 35.247 21.8731 35.5632 21.8731 35.9152C21.8731 36.0087 21.8704 36.094 21.8649 36.171C21.8594 36.248 21.8511 36.3167 21.8401 36.3772H18.5071V35.7915H21.5514L21.2131 35.8575C21.2131 35.4615 21.1031 35.1562 20.8831 34.9417C20.6686 34.7272 20.3854 34.62 20.0334 34.62C19.7639 34.62 19.5301 34.6832 19.3321 34.8097C19.1396 34.9307 18.9884 35.1095 18.8784 35.346C18.7739 35.577 18.7216 35.8575 18.7216 36.1875C18.7216 36.512 18.7766 36.7925 18.8866 37.029C18.9966 37.2655 19.1506 37.447 19.3486 37.5735C19.5521 37.6945 19.7941 37.755 20.0746 37.755C20.3771 37.755 20.6219 37.6972 20.8089 37.5817C21.0014 37.4662 21.1554 37.3095 21.2709 37.1115L21.7906 37.4167C21.6861 37.6037 21.5514 37.766 21.3864 37.9035C21.2269 38.041 21.0371 38.1482 20.8171 38.2252C20.6026 38.2968 20.3606 38.3325 20.0911 38.3325ZM25.5373 35.5852C25.5373 35.2772 25.4548 35.0407 25.2898 34.8757C25.1248 34.7052 24.8911 34.62 24.5886 34.62C24.3026 34.62 24.0606 34.6832 23.8626 34.8097C23.6646 34.9307 23.5188 35.1287 23.4253 35.4037L22.8891 35.0737C22.9991 34.7657 23.2026 34.5182 23.4996 34.3312C23.7966 34.1387 24.1651 34.0425 24.6051 34.0425C24.9021 34.0425 25.1716 34.0947 25.4136 34.1992C25.6556 34.2982 25.8453 34.4522 25.9828 34.6612C26.1258 34.8647 26.1973 35.1287 26.1973 35.4532V37.4497C26.1973 37.6477 26.3018 37.7467 26.5108 37.7467C26.6153 37.7467 26.7171 37.733 26.8161 37.7055L26.7831 38.2252C26.6731 38.2803 26.5301 38.3078 26.3541 38.3078C26.1946 38.3078 26.0516 38.2775 25.9251 38.217C25.7986 38.1565 25.6996 38.0657 25.6281 37.9447C25.5566 37.8182 25.5208 37.6615 25.5208 37.4745V37.392L25.6858 37.4167C25.6198 37.6312 25.5071 37.8072 25.3476 37.9447C25.1881 38.0767 25.0093 38.1757 24.8113 38.2417C24.6133 38.3023 24.4181 38.3325 24.2256 38.3325C23.9836 38.3325 23.7581 38.2913 23.5491 38.2087C23.3401 38.1262 23.1723 38.0025 23.0458 37.8375C22.9248 37.667 22.8643 37.458 22.8643 37.2105C22.8643 36.9025 22.9661 36.6495 23.1696 36.4515C23.3786 36.248 23.6673 36.1105 24.0358 36.039L25.6693 35.7172V36.2617L24.3411 36.534C24.0716 36.589 23.8708 36.666 23.7388 36.765C23.6068 36.864 23.5408 37.0015 23.5408 37.1775C23.5408 37.348 23.6068 37.4882 23.7388 37.5982C23.8763 37.7027 24.0688 37.755 24.3163 37.755C24.4758 37.755 24.6271 37.7357 24.7701 37.6972C24.9186 37.6532 25.0506 37.59 25.1661 37.5075C25.2816 37.4195 25.3723 37.3122 25.4383 37.1857C25.5043 37.0537 25.5373 36.8997 25.5373 36.7237V35.5852ZM28.4282 32.2275V37.2022C28.4282 37.4112 28.4667 37.557 28.5437 37.6395C28.6207 37.7165 28.7444 37.755 28.9149 37.755C29.0249 37.755 29.1157 37.7467 29.1872 37.7302C29.2587 37.7137 29.3549 37.6835 29.4759 37.6395L29.3687 38.217C29.2807 38.2555 29.1844 38.283 29.0799 38.2995C28.9754 38.3215 28.8682 38.3325 28.7582 38.3325C28.4227 38.3325 28.1724 38.2417 28.0074 38.0602C27.8479 37.8787 27.7682 37.601 27.7682 37.227V32.2275H28.4282ZM32.9684 38.25V32.805H36.7881V33.4237H33.6284V35.181H36.0869V35.7997H33.6284V37.6312H36.9119V38.25H32.9684ZM39.5906 38.3325C39.1891 38.3325 38.8179 38.2472 38.4769 38.0767C38.1414 37.9062 37.8829 37.6642 37.7014 37.3507L38.2624 36.9465C38.3834 37.1995 38.5594 37.3975 38.7904 37.5405C39.0269 37.6835 39.3101 37.755 39.6401 37.755C39.9316 37.755 40.1599 37.7 40.3249 37.59C40.4899 37.4745 40.5724 37.326 40.5724 37.1445C40.5724 37.029 40.5339 36.9245 40.4569 36.831C40.3854 36.732 40.2451 36.6605 40.0361 36.6165L39.0461 36.4102C38.6446 36.3277 38.3559 36.1902 38.1799 35.9977C38.0094 35.8052 37.9241 35.566 37.9241 35.28C37.9241 35.0545 37.9874 34.8482 38.1139 34.6612C38.2459 34.4742 38.4301 34.3257 38.6666 34.2157C38.9086 34.1002 39.1919 34.0425 39.5164 34.0425C39.9234 34.0425 40.2671 34.1222 40.5476 34.2817C40.8281 34.4412 41.0371 34.6667 41.1746 34.9582L40.6219 35.3212C40.5284 35.0792 40.3771 34.9032 40.1681 34.7932C39.9591 34.6777 39.7419 34.62 39.5164 34.62C39.3184 34.62 39.1479 34.6475 39.0049 34.7025C38.8674 34.7575 38.7601 34.8345 38.6831 34.9335C38.6116 35.027 38.5759 35.1342 38.5759 35.2552C38.5759 35.3762 38.6171 35.489 38.6996 35.5935C38.7821 35.6925 38.9361 35.764 39.1616 35.808L40.1929 36.0225C40.5779 36.0995 40.8474 36.226 41.0014 36.402C41.1554 36.578 41.2324 36.7925 41.2324 37.0455C41.2324 37.304 41.1636 37.5322 41.0261 37.7302C40.8886 37.9227 40.6961 38.0712 40.4486 38.1757C40.2011 38.2803 39.9151 38.3325 39.5906 38.3325ZM43.4297 32.9535V37.1115C43.4297 37.315 43.4875 37.4662 43.603 37.5652C43.7185 37.6642 43.867 37.7137 44.0485 37.7137C44.208 37.7137 44.3455 37.6862 44.461 37.6312C44.5765 37.5762 44.681 37.502 44.7745 37.4085L45.0055 37.9612C44.879 38.0767 44.7277 38.1675 44.5517 38.2335C44.3812 38.2995 44.1832 38.3325 43.9577 38.3325C43.7487 38.3325 43.5535 38.2968 43.372 38.2252C43.1905 38.1482 43.0447 38.03 42.9347 37.8705C42.8302 37.7055 42.7752 37.491 42.7697 37.227V33.135L43.4297 32.9535ZM44.9312 34.125V34.6942H41.9447V34.125H44.9312ZM48.3215 35.5852C48.3215 35.2772 48.239 35.0407 48.074 34.8757C47.909 34.7052 47.6753 34.62 47.3728 34.62C47.0868 34.62 46.8448 34.6832 46.6468 34.8097C46.4488 34.9307 46.303 35.1287 46.2095 35.4037L45.6733 35.0737C45.7833 34.7657 45.9868 34.5182 46.2838 34.3312C46.5808 34.1387 46.9493 34.0425 47.3893 34.0425C47.6863 34.0425 47.9558 34.0947 48.1978 34.1992C48.4398 34.2982 48.6295 34.4522 48.767 34.6612C48.91 34.8647 48.9815 35.1287 48.9815 35.4532V37.4497C48.9815 37.6477 49.086 37.7467 49.295 37.7467C49.3995 37.7467 49.5013 37.733 49.6003 37.7055L49.5673 38.2252C49.4573 38.2803 49.3143 38.3078 49.1383 38.3078C48.9788 38.3078 48.8358 38.2775 48.7093 38.217C48.5828 38.1565 48.4838 38.0657 48.4123 37.9447C48.3408 37.8182 48.305 37.6615 48.305 37.4745V37.392L48.47 37.4167C48.404 37.6312 48.2913 37.8072 48.1318 37.9447C47.9723 38.0767 47.7935 38.1757 47.5955 38.2417C47.3975 38.3023 47.2023 38.3325 47.0098 38.3325C46.7678 38.3325 46.5423 38.2913 46.3333 38.2087C46.1243 38.1262 45.9565 38.0025 45.83 37.8375C45.709 37.667 45.6485 37.458 45.6485 37.2105C45.6485 36.9025 45.7503 36.6495 45.9538 36.4515C46.1628 36.248 46.4515 36.1105 46.82 36.039L48.4535 35.7172V36.2617L47.1253 36.534C46.8558 36.589 46.655 36.666 46.523 36.765C46.391 36.864 46.325 37.0015 46.325 37.1775C46.325 37.348 46.391 37.4882 46.523 37.5982C46.6605 37.7027 46.853 37.755 47.1005 37.755C47.26 37.755 47.4113 37.7357 47.5543 37.6972C47.7028 37.6532 47.8348 37.59 47.9503 37.5075C48.0658 37.4195 48.1565 37.3122 48.2225 37.1857C48.2885 37.0537 48.3215 36.8997 48.3215 36.7237V35.5852ZM51.3977 32.9535V37.1115C51.3977 37.315 51.4555 37.4662 51.571 37.5652C51.6865 37.6642 51.835 37.7137 52.0165 37.7137C52.176 37.7137 52.3135 37.6862 52.429 37.6312C52.5445 37.5762 52.649 37.502 52.7425 37.4085L52.9735 37.9612C52.847 38.0767 52.6957 38.1675 52.5197 38.2335C52.3492 38.2995 52.1512 38.3325 51.9257 38.3325C51.7167 38.3325 51.5215 38.2968 51.34 38.2252C51.1585 38.1482 51.0127 38.03 50.9027 37.8705C50.7982 37.7055 50.7432 37.491 50.7377 37.227V33.135L51.3977 32.9535ZM52.8992 34.125V34.6942H49.9127V34.125H52.8992ZM55.6048 38.3325C55.2143 38.3325 54.865 38.2472 54.557 38.0767C54.2545 37.9062 54.018 37.6615 53.8475 37.3425C53.677 37.018 53.5918 36.633 53.5918 36.1875C53.5918 35.742 53.677 35.3597 53.8475 35.0407C54.018 34.7162 54.2518 34.4687 54.5488 34.2982C54.8458 34.1277 55.184 34.0425 55.5635 34.0425C55.9485 34.0425 56.2758 34.125 56.5453 34.29C56.8203 34.455 57.0293 34.6805 57.1723 34.9665C57.3153 35.247 57.3868 35.5632 57.3868 35.9152C57.3868 36.0087 57.384 36.094 57.3785 36.171C57.373 36.248 57.3648 36.3167 57.3538 36.3772H54.0208V35.7915H57.065L56.7268 35.8575C56.7268 35.4615 56.6168 35.1562 56.3968 34.9417C56.1823 34.7272 55.899 34.62 55.547 34.62C55.2775 34.62 55.0438 34.6832 54.8458 34.8097C54.6533 34.9307 54.502 35.1095 54.392 35.346C54.2875 35.577 54.2353 35.8575 54.2353 36.1875C54.2353 36.512 54.2903 36.7925 54.4003 37.029C54.5103 37.2655 54.6643 37.447 54.8623 37.5735C55.0658 37.6945 55.3078 37.755 55.5883 37.755C55.8908 37.755 56.1355 37.6972 56.3225 37.5817C56.515 37.4662 56.669 37.3095 56.7845 37.1115L57.3043 37.4167C57.1998 37.6037 57.065 37.766 56.9 37.9035C56.7405 38.041 56.5508 38.1482 56.3308 38.2252C56.1163 38.2968 55.8743 38.3325 55.6048 38.3325Z" fill="white"/>
<path d="M13.615 10.55H19.453C21.469 10.55 23.149 11.257 24.493 12.671C25.851 14.071 26.53 15.814 26.53 17.9C26.53 19.986 25.851 21.729 24.493 23.129C23.149 24.543 21.469 25.25 19.453 25.25H13.615V10.55ZM16.513 22.478H19.453C20.727 22.478 21.763 22.058 22.561 21.218C23.359 20.35 23.758 19.244 23.758 17.9C23.758 16.542 23.359 15.443 22.561 14.603C21.763 13.749 20.727 13.322 19.453 13.322H16.513V22.478ZM35.4922 20.42V14.75H38.2012V25.25H35.4922V24.074C34.8482 25.054 33.8052 25.544 32.3632 25.544C31.2152 25.544 30.2632 25.159 29.5072 24.389C28.7652 23.605 28.3942 22.541 28.3942 21.197V14.75H31.1032V20.861C31.1032 21.547 31.2852 22.079 31.6492 22.457C32.0272 22.835 32.5382 23.024 33.1822 23.024C33.8962 23.024 34.4562 22.807 34.8622 22.373C35.2822 21.925 35.4922 21.274 35.4922 20.42ZM46.7934 14.456C48.2074 14.456 49.4114 14.995 50.4054 16.073C51.4134 17.151 51.9174 18.46 51.9174 20C51.9174 21.568 51.4134 22.884 50.4054 23.948C49.4254 25.012 48.2214 25.544 46.7934 25.544C45.3234 25.544 44.1894 25.033 43.3914 24.011V25.25H40.6824V10.55H43.3914V15.989C44.1894 14.967 45.3234 14.456 46.7934 14.456ZM44.2104 22.142C44.7564 22.688 45.4494 22.961 46.2894 22.961C47.1294 22.961 47.8224 22.688 48.3684 22.142C48.9284 21.582 49.2084 20.868 49.2084 20C49.2084 19.132 48.9284 18.425 48.3684 17.879C47.8224 17.319 47.1294 17.039 46.2894 17.039C45.4494 17.039 44.7564 17.319 44.2104 17.879C43.6644 18.425 43.3914 19.132 43.3914 20C43.3914 20.868 43.6644 21.582 44.2104 22.142ZM61.8079 15.989V14.75H64.5169V25.25H61.8079V24.011C60.9959 25.033 59.8549 25.544 58.3849 25.544C56.9849 25.544 55.7809 25.012 54.7729 23.948C53.7789 22.87 53.2819 21.554 53.2819 20C53.2819 18.46 53.7789 17.151 54.7729 16.073C55.7809 14.995 56.9849 14.456 58.3849 14.456C59.8549 14.456 60.9959 14.967 61.8079 15.989ZM56.8099 22.142C57.3559 22.688 58.0489 22.961 58.8889 22.961C59.7289 22.961 60.4219 22.688 60.9679 22.142C61.5279 21.582 61.8079 20.868 61.8079 20C61.8079 19.132 61.5279 18.425 60.9679 17.879C60.4219 17.319 59.7289 17.039 58.8889 17.039C58.0489 17.039 57.3559 17.319 56.8099 17.879C56.2639 18.425 55.9909 19.132 55.9909 20C55.9909 20.868 56.2639 21.582 56.8099 22.142ZM68.3174 13.49C67.8694 13.49 67.4774 13.329 67.1414 13.007C66.8194 12.671 66.6584 12.279 66.6584 11.831C66.6584 11.383 66.8194 10.991 67.1414 10.655C67.4774 10.319 67.8694 10.151 68.3174 10.151C68.7794 10.151 69.1714 10.319 69.4934 10.655C69.8294 10.991 69.9974 11.383 69.9974 11.831C69.9974 12.279 69.8294 12.671 69.4934 13.007C69.1714 13.329 68.7794 13.49 68.3174 13.49ZM69.6824 25.25H66.9734V14.75H69.6824V25.25ZM83.4809 25.25H80.3519L77.3909 20.147H75.1859V25.25H72.2879V10.55H78.1679C79.5259 10.55 80.6809 11.026 81.6329 11.978C82.5849 12.93 83.0609 14.078 83.0609 15.422C83.0609 16.332 82.8019 17.179 82.2839 17.963C81.7659 18.733 81.0799 19.314 80.2259 19.706L83.4809 25.25ZM78.1679 13.259H75.1859V17.606H78.1679C78.7139 17.606 79.1829 17.396 79.5749 16.976C79.9669 16.542 80.1629 16.024 80.1629 15.422C80.1629 14.82 79.9669 14.309 79.5749 13.889C79.1829 13.469 78.7139 13.259 78.1679 13.259ZM94.7341 21.113H86.8171C87.1671 22.429 88.1541 23.087 89.7781 23.087C90.8141 23.087 91.5981 22.737 92.1301 22.037L94.3141 23.297C93.2781 24.795 91.7521 25.544 89.7361 25.544C88.0001 25.544 86.6071 25.019 85.5571 23.969C84.5071 22.919 83.9821 21.596 83.9821 20C83.9821 18.432 84.5001 17.116 85.5361 16.052C86.5581 14.988 87.8881 14.456 89.5261 14.456C91.0801 14.456 92.3471 14.988 93.3271 16.052C94.3351 17.116 94.8391 18.432 94.8391 20C94.8391 20.294 94.8041 20.665 94.7341 21.113ZM86.7751 19.013H92.1301C91.9761 18.327 91.6611 17.802 91.1851 17.438C90.7231 17.074 90.1701 16.892 89.5261 16.892C88.7981 16.892 88.1961 17.081 87.7201 17.459C87.2441 17.823 86.9291 18.341 86.7751 19.013ZM104.628 15.989V14.75H107.337V25.25H104.628V24.011C103.816 25.033 102.675 25.544 101.205 25.544C99.8052 25.544 98.6012 25.012 97.5932 23.948C96.5992 22.87 96.1022 21.554 96.1022 20C96.1022 18.46 96.5992 17.151 97.5932 16.073C98.6012 14.995 99.8052 14.456 101.205 14.456C102.675 14.456 103.816 14.967 104.628 15.989ZM99.6302 22.142C100.176 22.688 100.869 22.961 101.709 22.961C102.549 22.961 103.242 22.688 103.788 22.142C104.348 21.582 104.628 20.868 104.628 20C104.628 19.132 104.348 18.425 103.788 17.879C103.242 17.319 102.549 17.039 101.709 17.039C100.869 17.039 100.176 17.319 99.6302 17.879C99.0842 18.425 98.8112 19.132 98.8112 20C98.8112 20.868 99.0842 21.582 99.6302 22.142ZM112.503 25.25H109.794V9.92H112.503V25.25ZM120.988 14.75V17.354H118.615V21.722C118.615 22.086 118.706 22.352 118.888 22.52C119.07 22.688 119.336 22.786 119.686 22.814C120.036 22.828 120.47 22.821 120.988 22.793V25.25C119.154 25.46 117.845 25.292 117.061 24.746C116.291 24.186 115.906 23.178 115.906 21.722V17.354H114.079V14.75H115.906V12.629L118.615 11.81V14.75H120.988ZM127.639 21.806L129.97 14.75H132.868L129.046 25.25C128.5 26.762 127.772 27.854 126.862 28.526C125.966 29.212 124.846 29.52 123.502 29.45V26.93C124.216 26.944 124.79 26.79 125.224 26.468C125.658 26.146 126.001 25.628 126.253 24.914L121.948 14.75H124.909L127.639 21.806Z" fill="white"/>
<path d="M31 1L1 1V24.625V48.25H31" stroke="#FCD54C" stroke-width="1.5"/>
</svg>
