<svg width="15" height="123" viewBox="0 0 15 123" fill="none" xmlns="http://www.w3.org/2000/svg">
<path d="M10.4116 8.10252L10.7813 5.73726H8.46993V4.20237C8.46993 3.55528 8.79281 2.92453 9.82799 2.92453H10.8788V0.910771C10.8788 0.910771 9.92522 0.750977 9.01352 0.750977C7.11005 0.750977 5.86586 1.88383 5.86586 3.9346V5.73726H3.75V8.10252H5.86586V13.8204H8.46993V8.10252H10.4116Z" fill="#E8E8E8"/>
<path d="M12.476 31.7052C12.4843 31.8319 12.4843 31.9585 12.4843 32.0852C12.4843 35.9481 9.78913 40.399 4.86321 40.399C3.34563 40.399 1.93587 39.9196 0.75 39.0873C0.96562 39.1144 1.17292 39.1235 1.39683 39.1235C2.64902 39.1235 3.80173 38.6621 4.72223 37.875C3.54466 37.8479 2.55782 37.0066 2.21781 35.8486C2.38368 35.8757 2.54952 35.8938 2.72369 35.8938C2.96417 35.8938 3.20468 35.8576 3.42857 35.7943C2.20124 35.5229 1.28072 34.3468 1.28072 32.9265V32.8903C1.63729 33.1075 2.05196 33.2432 2.49145 33.2612C1.76998 32.7365 1.29731 31.8409 1.29731 30.8277C1.29731 30.2849 1.42997 29.7873 1.66218 29.3531C2.98073 31.1262 4.96272 32.2842 7.18515 32.4108C7.1437 32.1937 7.11881 31.9676 7.11881 31.7414C7.11881 30.1311 8.31298 28.8193 9.79738 28.8193C10.5686 28.8193 11.2652 29.1722 11.7545 29.7421C12.3598 29.6154 12.9403 29.3712 13.4545 29.0365C13.2554 29.715 12.8325 30.2849 12.2769 30.6468C12.816 30.5835 13.3384 30.4206 13.8194 30.1944C13.4545 30.7734 12.9984 31.289 12.476 31.7052Z" fill="#E8E8E8"/>
<path d="M13.2391 108.573H1.01521C0.455096 108.573 0 109.015 0 109.558V121.252C0 121.794 0.455096 122.237 1.01521 122.237H13.2391C13.7993 122.237 14.2575 121.794 14.2575 121.252V109.558C14.2575 109.015 13.7993 108.573 13.2391 108.573ZM4.30909 120.285H2.19592V113.764H4.31227V120.285H4.30909ZM3.2525 112.874C2.57463 112.874 2.02724 112.346 2.02724 111.699C2.02724 111.053 2.57463 110.525 3.2525 110.525C3.92719 110.525 4.47776 111.053 4.47776 111.699C4.47776 112.349 3.93037 112.874 3.2525 112.874ZM12.2303 120.285H10.1171V117.113C10.1171 116.357 10.1012 115.384 9.01917 115.384C7.91803 115.384 7.74936 116.207 7.74936 117.058V120.285H5.63618V113.764H7.66343V114.655H7.69207C7.97531 114.142 8.66591 113.602 9.69385 113.602C11.8325 113.602 12.2303 114.954 12.2303 116.71V120.285Z" fill="#E8E8E8"/>
<path fill-rule="evenodd" clip-rule="evenodd" d="M5.99133 62.5919V58.3831C7.48548 59.0861 8.64269 59.7653 10.0113 60.4976C8.88251 61.1236 7.48548 61.826 5.99133 62.5919ZM14.3183 56.2898C14.0605 55.9502 13.6212 55.6859 13.1536 55.5984C11.7789 55.3374 3.20324 55.3366 1.82936 55.5984C1.45433 55.6687 1.12038 55.8386 0.833499 56.1027C-0.375272 57.2246 0.00349963 63.2411 0.29486 64.2157C0.41738 64.6376 0.575767 64.9418 0.775237 65.1415C1.03223 65.4055 1.3841 65.5873 1.78827 65.6688C2.92009 65.9029 8.75103 66.0338 13.1296 65.704C13.5331 65.6337 13.8902 65.446 14.1718 65.1708C15.2894 64.0533 15.2133 57.6989 14.3183 56.2898Z" fill="#E8E8E8"/>
<path d="M13.5 84.6234C13.5 83.9107 13.3416 83.5147 13.1832 83.0396C13.0248 82.6436 12.7873 82.2476 12.4705 81.9309C12.1537 81.5349 11.7578 81.3765 11.3618 81.2181C10.9658 81.0598 10.4907 80.9806 9.77795 80.9014C9.06522 80.9014 8.82764 80.9014 7.0854 80.9014C5.42236 80.9014 5.18478 80.9014 4.47205 80.9014C3.75932 80.9014 3.36335 81.0598 2.8882 81.2181C2.49224 81.3765 2.09627 81.6141 1.7795 81.9309C1.46273 82.3268 1.22516 82.6436 1.06677 83.1188C0.908385 83.5147 0.829193 83.9899 0.75 84.6234C0.75 85.3361 0.75 85.5737 0.75 87.2368C0.75 88.979 0.75 89.2166 0.75 89.8501C0.75 90.5629 0.908385 90.9588 1.06677 91.434C1.22516 91.8299 1.46273 92.2259 1.7795 92.5427C2.17547 92.9386 2.49224 93.097 2.8882 93.2554C3.28416 93.4138 3.75932 93.493 4.47205 93.5722C5.18478 93.5722 5.34317 93.5722 7.0854 93.5722C8.82764 93.5722 9.06522 93.5722 9.69876 93.5722C10.4115 93.5722 10.8075 93.4138 11.2826 93.2554C11.6786 93.097 12.0745 92.8594 12.3913 92.5427C12.7873 92.1467 12.9457 91.8299 13.104 91.434C13.2624 91.038 13.3416 90.5629 13.4208 89.8501C13.5 89.1374 13.4208 88.979 13.4208 87.2368C13.4208 85.4945 13.5 85.3361 13.5 84.6234ZM7.0854 90.5629C5.26398 90.5629 3.83851 89.0582 3.83851 87.316C3.83851 85.4945 5.34317 84.0691 7.0854 84.0691C8.90683 84.0691 10.3323 85.5737 10.3323 87.316C10.4115 89.0582 8.90683 90.5629 7.0854 90.5629ZM10.4907 84.6234C10.0947 84.6234 9.69876 84.3066 9.69876 83.8315C9.69876 83.4355 10.0155 83.0396 10.4907 83.0396C10.8866 83.0396 11.2826 83.3563 11.2826 83.8315C11.2826 84.3066 10.9658 84.6234 10.4907 84.6234Z" fill="#E8E8E8"/>
<path d="M9.22366 87.2377C9.22366 88.4256 8.27335 89.3759 7.08546 89.3759C5.89758 89.3759 4.94727 88.4256 4.94727 87.2377C4.94727 86.0498 5.97677 85.1787 7.08546 85.1787C8.27335 85.1787 9.22366 86.129 9.22366 87.2377Z" fill="#E8E8E8"/>
</svg>
