<svg width="14" height="13" viewBox="0 0 14 13" fill="none" xmlns="http://www.w3.org/2000/svg">
<path d="M12.476 3.70521C12.4843 3.83185 12.4843 3.95853 12.4843 4.08518C12.4843 7.94808 9.78913 12.399 4.86321 12.399C3.34563 12.399 1.93587 11.9196 0.75 11.0873C0.96562 11.1144 1.17292 11.1235 1.39683 11.1235C2.64902 11.1235 3.80173 10.6621 4.72223 9.87505C3.54466 9.8479 2.55782 9.00656 2.21781 7.84858C2.38368 7.8757 2.54952 7.8938 2.72369 7.8938C2.96417 7.8938 3.20468 7.8576 3.42857 7.79431C2.20124 7.52289 1.28072 6.34683 1.28072 4.92651V4.89034C1.63729 5.10746 2.05196 5.24316 2.49145 5.26123C1.76998 4.73651 1.29731 3.8409 1.29731 2.82767C1.29731 2.28488 1.42997 1.78732 1.66218 1.35307C2.98073 3.12622 4.96272 4.28417 7.18515 4.41084C7.1437 4.19372 7.11881 3.96758 7.11881 3.74141C7.11881 2.13109 8.31298 0.819336 9.79738 0.819336C10.5686 0.819336 11.2652 1.17215 11.7545 1.74209C12.3598 1.61545 12.9403 1.37118 13.4545 1.03646C13.2554 1.71497 12.8325 2.28491 12.2769 2.64675C12.816 2.58346 13.3384 2.42058 13.8194 2.19444C13.4545 2.7734 12.9984 3.28904 12.476 3.70521Z" fill="#E8E8E8"/>
</svg>
