<svg width="15" height="15" viewBox="0 0 15 15" fill="none" xmlns="http://www.w3.org/2000/svg">
<path d="M13.2391 0.573242H1.01521C0.455096 0.573242 0 1.01548 0 1.55835V13.2516C0 13.7945 0.455096 14.2367 1.01521 14.2367H13.2391C13.7993 14.2367 14.2575 13.7945 14.2575 13.2516V1.55835C14.2575 1.01548 13.7993 0.573242 13.2391 0.573242ZM4.30909 12.2848H2.19592V5.76414H4.31227V12.2848H4.30909ZM3.2525 4.87358C2.57463 4.87358 2.02724 4.34595 2.02724 3.69937C2.02724 3.0528 2.57463 2.52517 3.2525 2.52517C3.92719 2.52517 4.47776 3.0528 4.47776 3.69937C4.47776 4.349 3.93037 4.87358 3.2525 4.87358ZM12.2303 12.2848H10.1171V9.11291C10.1171 8.35654 10.1012 7.38363 9.01917 7.38363C7.91803 7.38363 7.74936 8.2071 7.74936 9.05802V12.2848H5.63618V5.76414H7.66343V6.65471H7.69207C7.97531 6.14233 8.66591 5.6025 9.69385 5.6025C11.8325 5.6025 12.2303 6.9536 12.2303 8.71033V12.2848Z" fill="#E8E8E8"/>
</svg>
