<svg width="15" height="11" viewBox="0 0 15 11" fill="none" xmlns="http://www.w3.org/2000/svg">
<path fill-rule="evenodd" clip-rule="evenodd" d="M5.99133 7.59193V3.38307C7.48548 4.08614 8.64269 4.76532 10.0113 5.49757C8.88251 6.1236 7.48548 6.82603 5.99133 7.59193ZM14.3183 1.28981C14.0605 0.950236 13.6212 0.68591 13.1536 0.5984C11.7789 0.337363 3.20324 0.33662 1.82936 0.5984C1.45433 0.668705 1.12038 0.838643 0.833499 1.10267C-0.375272 2.2246 0.00349963 8.24112 0.29486 9.21571C0.41738 9.63755 0.575767 9.94178 0.775237 10.1415C1.03223 10.4055 1.3841 10.5873 1.78827 10.6688C2.92009 10.9029 8.75103 11.0338 13.1296 10.704C13.5331 10.6337 13.8902 10.446 14.1718 10.1708C15.2894 9.05334 15.2133 2.69894 14.3183 1.28981Z" fill="#E8E8E8"/>
</svg>
